<svg width="47" height="92" viewBox="0 0 47 92" fill="none" xmlns="http://www.w3.org/2000/svg">
<path d="M8.84 7.39C8.84 6.52333 8.62333 5.80833 8.19 5.245C7.8 4.68166 7.23667 4.4 6.5 4.4C5.41667 4.4 4.52833 4.96333 3.835 6.09L0.91 4.01C1.38667 3.1 2.10167 2.32 3.055 1.67C4.00833 1.02 5.135 0.694998 6.435 0.694998C8.34167 0.694998 9.85833 1.32333 10.985 2.58C12.155 3.83666 12.74 5.44 12.74 7.39V21.82H15.6C17.0733 21.82 18.5033 21.5167 19.89 20.91C21.2767 20.26 22.36 19.4583 23.14 18.505C24.44 16.8583 25.935 14.54 27.625 11.55C28.6217 9.73 30.2683 6.39333 32.565 1.54H37.05C33.7133 7.91 31.5033 12.0267 30.42 13.89C28.86 16.62 27.7333 18.4617 27.04 19.415C26.26 20.4983 25.6317 21.3217 25.155 21.885C24.6783 22.405 24.115 22.925 23.465 23.445L36.53 41.905C37.0067 42.555 37.6133 42.88 38.35 42.88C39.1733 42.88 39.8017 42.5767 40.235 41.97L43.225 44.05C42.6183 44.83 41.86 45.4367 40.95 45.87C40.0833 46.3033 39.1733 46.52 38.22 46.52C37.31 46.52 36.4433 46.3033 35.62 45.87C34.7967 45.3933 34.1033 44.765 33.54 43.985L20.02 24.875C19.0667 25.1783 18.2433 25.3733 17.55 25.46C16.8567 25.5467 15.9683 25.59 14.885 25.59H12.87V45.935H8.84V7.39ZM7.41 91.845C6.02333 91.845 4.83167 91.4767 3.835 90.74C2.88167 90.0033 2.25333 89.05 1.95 87.88L4.94 86.255C5.15667 86.8183 5.46 87.295 5.85 87.685C6.28333 88.0317 6.78167 88.205 7.345 88.205C7.865 88.205 8.27667 88.0317 8.58 87.685C8.92667 87.3383 9.27333 86.7533 9.62 85.93L26.26 45.955H27.56L46.475 91H42.315L36.14 76.245H17.615L12.74 88.335C12.3067 89.4183 11.5917 90.285 10.595 90.935C9.59833 91.5417 8.53667 91.845 7.41 91.845ZM34.58 72.605L27.56 55.12L26.845 52.52L26.195 55.12L19.175 72.605H34.58Z" fill="black"/>
</svg>
