<svg width="214" height="113" viewBox="0 0 214 113" fill="none" xmlns="http://www.w3.org/2000/svg">
<path d="M0.342011 4.72802C0.33879 3.81006 0.619283 3.03758 1.18349 2.4106C1.76716 1.76402 2.60587 1.4388 3.69962 1.43497C4.79336 1.43113 5.62456 1.75048 6.19323 2.39302C6.78136 3.01596 7.07703 3.78641 7.08025 4.70437C7.0834 5.6028 6.79311 6.36555 6.20937 6.9926C5.64516 7.61958 4.81618 7.93499 3.72244 7.93883C2.6287 7.94267 1.78776 7.63312 1.19964 7.01018C0.631039 6.38717 0.345164 5.62645 0.342011 4.72802ZM16.1622 4.6725C16.159 3.75453 16.4395 2.98206 17.0037 2.35508C17.5874 1.70849 18.4261 1.38328 19.5198 1.37944C20.6136 1.37561 21.4448 1.69496 22.0134 2.3375C22.6016 2.96043 22.8972 3.73089 22.9005 4.64885C22.9036 5.54728 22.6133 6.31002 22.0296 6.93708C21.4654 7.56406 20.6364 7.87947 19.5427 7.88331C18.4489 7.88715 17.608 7.5776 17.0199 6.95466C16.4513 6.33165 16.1654 5.57093 16.1622 4.6725ZM31.9824 4.61698C31.9792 3.69901 32.2597 2.92654 32.8239 2.29955C33.4076 1.65297 34.2463 1.32776 35.34 1.32392C36.4338 1.32008 37.265 1.63943 37.8337 2.28197C38.4218 2.90491 38.7175 3.67536 38.7207 4.59333C38.7238 5.49176 38.4335 6.2545 37.8498 6.88155C37.2856 7.50854 36.4566 7.82395 35.3629 7.82779C34.2691 7.83163 33.4282 7.52208 32.8401 6.89914C32.2715 6.27613 31.9856 5.51541 31.9824 4.61698ZM47.8027 4.56145C47.7994 3.64349 48.0799 2.87102 48.6441 2.24403C49.2278 1.59745 50.0665 1.27224 51.1603 1.2684C52.254 1.26456 53.0852 1.58391 53.6539 2.22645C54.242 2.84939 54.5377 3.61984 54.5409 4.5378C54.5441 5.43624 54.2538 6.19898 53.67 6.82603C53.1058 7.45302 52.2768 7.76843 51.1831 7.77227C50.0893 7.7761 49.2484 7.46655 48.6603 6.84361C48.0917 6.22061 47.8058 5.45989 47.8027 4.56145ZM63.6229 4.50593C63.6197 3.58797 63.9001 2.81549 64.4644 2.18851C65.048 1.54193 65.8867 1.21672 66.9805 1.21288C68.0742 1.20904 68.9054 1.52839 69.4741 2.17093C70.0622 2.79387 70.3579 3.56432 70.3611 4.48228C70.3643 5.38071 70.074 6.14346 69.4902 6.77051C68.926 7.39749 68.097 7.7129 67.0033 7.71674C65.9096 7.72058 65.0686 7.41103 64.4805 6.78809C63.9119 6.16508 63.626 5.40436 63.6229 4.50593ZM79.4431 4.45041C79.4399 3.53245 79.7204 2.75997 80.2846 2.13299C80.8682 1.4864 81.7069 1.16119 82.8007 1.15735C83.8944 1.15352 84.7256 1.47287 85.2943 2.11541C85.8824 2.73835 86.1781 3.5088 86.1813 4.42676C86.1845 5.32519 85.8942 6.08793 85.3104 6.71499C84.7462 7.34197 83.9173 7.65738 82.8235 7.66122C81.7298 7.66506 80.8888 7.35551 80.3007 6.73257C79.7321 6.10956 79.4462 5.34884 79.4431 4.45041ZM95.2633 4.39489C95.2601 3.47692 95.5406 2.70445 96.1048 2.07747C96.6885 1.43088 97.5272 1.10567 98.6209 1.10183C99.7147 1.09799 100.546 1.41734 101.115 2.05988C101.703 2.68282 101.998 3.45327 102.002 4.37124C102.005 5.26967 101.714 6.03241 101.131 6.65946C100.566 7.28645 99.7375 7.60186 98.6437 7.6057C97.55 7.60954 96.7091 7.29999 96.1209 6.67705C95.5523 6.05404 95.2665 5.29332 95.2633 4.39489ZM111.084 4.33936C111.08 3.4214 111.361 2.64893 111.925 2.02194C112.509 1.37536 113.347 1.05015 114.441 1.04631C115.535 1.04247 116.366 1.36182 116.935 2.00436C117.523 2.6273 117.819 3.39775 117.822 4.31571C117.825 5.21415 117.535 5.97689 116.951 6.60394C116.387 7.23093 115.558 7.54634 114.464 7.55018C113.37 7.55401 112.529 7.24446 111.941 6.62152C111.373 5.99852 111.087 5.2378 111.084 4.33936ZM126.904 4.28384C126.901 3.36588 127.181 2.5934 127.745 1.96642C128.329 1.31984 129.168 0.994625 130.261 0.990787C131.355 0.986948 132.186 1.3063 132.755 1.94884C133.343 2.57178 133.639 3.34223 133.642 4.26019C133.645 5.15862 133.355 5.92137 132.771 6.54842C132.207 7.1754 131.378 7.49081 130.284 7.49465C129.19 7.49849 128.349 7.18894 127.761 6.566C127.193 5.94299 126.907 5.18227 126.904 4.28384ZM142.724 4.22832C142.721 3.31036 143.001 2.53788 143.565 1.9109C144.149 1.26431 144.988 0.939103 146.082 0.935264C147.175 0.931426 148.007 1.25078 148.575 1.89332C149.163 2.51626 149.459 3.28671 149.462 4.20467C149.465 5.1031 149.175 5.86584 148.591 6.4929C148.027 7.11988 147.198 7.43529 146.104 7.43913C145.011 7.44297 144.17 7.13342 143.582 6.51048C143.013 5.88747 142.727 5.12675 142.724 4.22832ZM158.544 4.1728C158.541 3.25483 158.821 2.48236 159.386 1.85538C159.969 1.20879 160.808 0.883581 161.902 0.879742C162.996 0.875903 163.827 1.19525 164.395 1.83779C164.984 2.46073 165.279 3.23118 165.282 4.14915C165.286 5.04758 164.995 5.81032 164.412 6.43737C163.847 7.06436 163.018 7.37977 161.925 7.38361C160.831 7.38745 159.99 7.0779 159.402 6.45496C158.833 5.83195 158.547 5.07123 158.544 4.1728ZM174.364 4.11727C174.361 3.19931 174.642 2.42684 175.206 1.79985C175.79 1.15327 176.628 0.828058 177.722 0.824219C178.816 0.820381 179.647 1.13973 180.216 1.78227C180.804 2.40521 181.099 3.17566 181.103 4.09363C181.106 4.99206 180.815 5.7548 180.232 6.38185C179.668 7.00884 178.839 7.32425 177.745 7.32809C176.651 7.33192 175.81 7.02237 175.222 6.39943C174.653 5.77643 174.368 5.01571 174.364 4.11727ZM190.185 4.06175C190.181 3.14379 190.462 2.37131 191.026 1.74433C191.61 1.09775 192.448 0.772536 193.542 0.768697C194.636 0.764858 195.467 1.08421 196.036 1.72675C196.624 2.34969 196.92 3.12014 196.923 4.0381C196.926 4.93653 196.636 5.69928 196.052 6.32633C195.488 6.95331 194.659 7.26872 193.565 7.27256C192.471 7.2764 191.63 6.96685 191.042 6.34391C190.474 5.7209 190.188 4.96018 190.185 4.06175ZM206.005 4.00623C206.002 3.08827 206.282 2.31579 206.846 1.68881C207.43 1.04222 208.269 0.717013 209.362 0.713175C210.456 0.709336 211.287 1.02869 211.856 1.67123C212.444 2.29417 212.74 3.06462 212.743 3.98258C212.746 4.88101 212.456 5.64375 211.872 6.27081C211.308 6.89779 210.479 7.2132 209.385 7.21704C208.291 7.22088 207.451 6.91133 206.862 6.28839C206.294 5.66538 206.008 4.90466 206.005 4.00623ZM0.464846 39.7278C0.461624 38.8098 0.742118 38.0374 1.30633 37.4104C1.89 36.7638 2.72871 36.4386 3.82245 36.4348C4.91619 36.4309 5.7474 36.7503 6.31606 37.3928C6.90419 38.0157 7.19986 38.7862 7.20309 39.7042C7.20624 40.6026 6.91595 41.3653 6.33221 41.9924C5.768 42.6194 4.93902 42.9348 3.84528 42.9386C2.75153 42.9425 1.9106 42.6329 1.32247 42.01C0.753874 41.387 0.467999 40.6262 0.464846 39.7278ZM16.2851 39.6723C16.2818 38.7543 16.5623 37.9818 17.1265 37.3549C17.7102 36.7083 18.5489 36.3831 19.6427 36.3792C20.7364 36.3754 21.5676 36.6947 22.1363 37.3373C22.7244 37.9602 23.0201 38.7307 23.0233 39.6486C23.0265 40.5471 22.7362 41.3098 22.1524 41.9369C21.5882 42.5638 20.7592 42.8793 19.6655 42.8831C18.5717 42.8869 17.7308 42.5774 17.1427 41.9544C16.5741 41.3314 16.2882 40.5707 16.2851 39.6723ZM32.1053 39.6168C32.1021 38.6988 32.3825 37.9263 32.9468 37.2993C33.5304 36.6528 34.3691 36.3275 35.4629 36.3237C36.5566 36.3199 37.3878 36.6392 37.9565 37.2818C38.5446 37.9047 38.8403 38.6751 38.8435 39.5931C38.8467 40.4915 38.5564 41.2543 37.9726 41.8813C37.4084 42.5083 36.5795 42.8237 35.4857 42.8276C34.392 42.8314 33.551 42.5219 32.9629 41.8989C32.3943 41.2759 32.1084 40.5152 32.1053 39.6168ZM47.9255 39.5612C47.9223 38.6433 48.2028 37.8708 48.767 37.2438C49.3506 36.5972 50.1894 36.272 51.2831 36.2682C52.3768 36.2643 53.208 36.5837 53.7767 37.2262C54.3648 37.8492 54.6605 38.6196 54.6637 39.5376C54.6669 40.436 54.3766 41.1988 53.7929 41.8258C53.2286 42.4528 52.3997 42.7682 51.3059 42.7721C50.2122 42.7759 49.3712 42.4663 48.7831 41.8434C48.2145 41.2204 47.9286 40.4597 47.9255 39.5612ZM63.7457 39.5057C63.7425 38.5878 64.023 37.8153 64.5872 37.1883C65.1709 36.5417 66.0096 36.2165 67.1033 36.2127C68.1971 36.2088 69.0283 36.5282 69.5969 37.1707C70.1851 37.7937 70.4807 38.5641 70.4839 39.4821C70.4871 40.3805 70.1968 41.1432 69.6131 41.7703C69.0489 42.3973 68.2199 42.7127 67.1261 42.7165C66.0324 42.7204 65.1915 42.4108 64.6033 41.7879C64.0347 41.1649 63.7489 40.4041 63.7457 39.5057ZM79.5659 39.4502C79.5627 38.5322 79.8432 37.7598 80.4074 37.1328C80.9911 36.4862 81.8298 36.161 82.9235 36.1571C84.0173 36.1533 84.8485 36.4727 85.4171 37.1152C86.0053 37.7381 86.3009 38.5086 86.3042 39.4265C86.3073 40.325 86.017 41.0877 85.4333 41.7148C84.8691 42.3418 84.0401 42.6572 82.9464 42.661C81.8526 42.6648 81.0117 42.3553 80.4235 41.7324C79.855 41.1093 79.5691 40.3486 79.5659 39.4502ZM95.3861 39.3947C95.3829 38.4767 95.6634 37.7042 96.2276 37.0773C96.8113 36.4307 97.65 36.1055 98.7437 36.1016C99.8375 36.0978 100.669 36.4171 101.237 37.0597C101.825 37.6826 102.121 38.4531 102.124 39.371C102.128 40.2695 101.837 41.0322 101.253 41.6592C100.689 42.2862 99.8603 42.6016 98.7666 42.6055C97.6728 42.6093 96.8319 42.2998 96.2438 41.6768C95.6752 41.0538 95.3893 40.2931 95.3861 39.3947ZM111.206 39.3391C111.203 38.4212 111.484 37.6487 112.048 37.0217C112.632 36.3751 113.47 36.0499 114.564 36.0461C115.658 36.0423 116.489 36.3616 117.058 37.0041C117.646 37.6271 117.941 38.3975 117.945 39.3155C117.948 40.2139 117.657 40.9767 117.074 41.6037C116.51 42.2307 115.681 42.5461 114.587 42.55C113.493 42.5538 112.652 42.2442 112.064 41.6213C111.495 40.9983 111.21 40.2376 111.206 39.3391ZM127.027 39.2836C127.023 38.3657 127.304 37.5932 127.868 36.9662C128.452 36.3196 129.29 35.9944 130.384 35.9906C131.478 35.9867 132.309 36.3061 132.878 36.9486C133.466 37.5716 133.762 38.342 133.765 39.26C133.768 40.1584 133.478 40.9212 132.894 41.5482C132.33 42.1752 131.501 42.4906 130.407 42.4944C129.313 42.4983 128.472 42.1887 127.884 41.5658C127.316 40.9428 127.03 40.1821 127.027 39.2836ZM142.847 39.2281C142.844 38.3101 143.124 37.5377 143.688 36.9107C144.272 36.2641 145.111 35.9389 146.204 35.935C147.298 35.9312 148.129 36.2506 148.698 36.8931C149.286 37.516 149.582 38.2865 149.585 39.2045C149.588 40.1029 149.298 40.8656 148.714 41.4927C148.15 42.1197 147.321 42.4351 146.227 42.4389C145.133 42.4428 144.293 42.1332 143.704 41.5103C143.136 40.8873 142.85 40.1265 142.847 39.2281ZM158.667 39.1726C158.664 38.2546 158.944 37.4821 159.508 36.8552C160.092 36.2086 160.931 35.8834 162.025 35.8795C163.118 35.8757 163.95 36.195 164.518 36.8376C165.106 37.4605 165.402 38.231 165.405 39.1489C165.408 40.0474 165.118 40.8101 164.534 41.4372C163.97 42.0641 163.141 42.3796 162.047 42.3834C160.954 42.3872 160.113 42.0777 159.525 41.4547C158.956 40.8317 158.67 40.071 158.667 39.1726ZM174.487 39.1171C174.484 38.1991 174.764 37.4266 175.329 36.7996C175.912 36.1531 176.751 35.8278 177.845 35.824C178.939 35.8202 179.77 36.1395 180.338 36.7821C180.927 37.405 181.222 38.1754 181.225 39.0934C181.229 39.9918 180.938 40.7546 180.355 41.3816C179.79 42.0086 178.961 42.324 177.868 42.3279C176.774 42.3317 175.933 42.0222 175.345 41.3992C174.776 40.7762 174.49 40.0155 174.487 39.1171ZM190.307 39.0615C190.304 38.1436 190.585 37.3711 191.149 36.7441C191.733 36.0975 192.571 35.7723 193.665 35.7685C194.759 35.7646 195.59 36.084 196.159 36.7265C196.747 37.3495 197.042 38.1199 197.046 39.0379C197.049 39.9363 196.759 40.6991 196.175 41.3261C195.611 41.9531 194.782 42.2685 193.688 42.2723C192.594 42.2762 191.753 41.9666 191.165 41.3437C190.596 40.7207 190.311 39.96 190.307 39.0615ZM206.128 39.006C206.124 38.0881 206.405 37.3156 206.969 36.6886C207.553 36.042 208.392 35.7168 209.485 35.713C210.579 35.7091 211.41 36.0285 211.979 36.671C212.567 37.294 212.863 38.0644 212.866 38.9824C212.869 39.8808 212.579 40.6435 211.995 41.2706C211.431 41.8976 210.602 42.213 209.508 42.2168C208.414 42.2207 207.573 41.9111 206.985 41.2882C206.417 40.6652 206.131 39.9044 206.128 39.006ZM0.587681 74.7276C0.584459 73.8096 0.864953 73.0372 1.42916 72.4102C2.01283 71.7636 2.85154 71.4384 3.94529 71.4345C5.03903 71.4307 5.87023 71.75 6.4389 72.3926C7.02702 73.0155 7.3227 73.786 7.32592 74.7039C7.32907 75.6024 7.03878 76.3651 6.45504 76.9922C5.89083 77.6192 5.06185 77.9346 3.96811 77.9384C2.87437 77.9422 2.03343 77.6327 1.44531 77.0098C0.876709 76.3867 0.590834 75.626 0.587681 74.7276ZM16.4079 74.6721C16.4047 73.7541 16.6852 72.9816 17.2494 72.3546C17.833 71.7081 18.6718 71.3829 19.7655 71.379C20.8592 71.3752 21.6904 71.6945 22.2591 72.3371C22.8472 72.96 23.1429 73.7305 23.1461 74.6484C23.1493 75.5469 22.859 76.3096 22.2753 76.9366C21.711 77.5636 20.8821 77.879 19.7883 77.8829C18.6946 77.8867 17.8536 77.5772 17.2655 76.9542C16.6969 76.3312 16.411 75.5705 16.4079 74.6721ZM32.2281 74.6165C32.2249 73.6986 32.5054 72.9261 33.0696 72.2991C33.6533 71.6525 34.492 71.3273 35.5857 71.3235C36.6795 71.3197 37.5107 71.639 38.0793 72.2815C38.6675 72.9045 38.9631 73.6749 38.9664 74.5929C38.9695 75.4913 38.6792 76.2541 38.0955 76.8811C37.5313 77.5081 36.7023 77.8235 35.6085 77.8274C34.5148 77.8312 33.6739 77.5216 33.0857 76.8987C32.5171 76.2757 32.2313 75.515 32.2281 74.6165ZM48.0483 74.561C48.0451 73.6431 48.3256 72.8706 48.8898 72.2436C49.4735 71.597 50.3122 71.2718 51.4059 71.268C52.4997 71.2641 53.3309 71.5835 53.8995 72.226C54.4877 72.849 54.7833 73.6194 54.7866 74.5374C54.7897 75.4358 54.4994 76.1985 53.9157 76.8256C53.3515 77.4526 52.5225 77.768 51.4288 77.7718C50.335 77.7757 49.4941 77.4661 48.906 76.8432C48.3374 76.2202 48.0515 75.4595 48.0483 74.561ZM63.8685 74.5055C63.8653 73.5875 64.1458 72.8151 64.71 72.1881C65.2937 71.5415 66.1324 71.2163 67.2261 71.2124C68.3199 71.2086 69.1511 71.528 69.7198 72.1705C70.3079 72.7934 70.6036 73.5639 70.6068 74.4819C70.6099 75.3803 70.3196 76.143 69.7359 76.7701C69.1717 77.3971 68.3427 77.7125 67.249 77.7163C66.1552 77.7202 65.3143 77.4106 64.7262 76.7877C64.1576 76.1647 63.8717 75.4039 63.8685 74.5055ZM79.6888 74.45C79.6855 73.532 79.966 72.7595 80.5302 72.1326C81.1139 71.486 81.9526 71.1608 83.0464 71.1569C84.1401 71.1531 84.9713 71.4724 85.54 72.115C86.1281 72.7379 86.4238 73.5084 86.427 74.4263C86.4302 75.3248 86.1399 76.0875 85.5561 76.7146C84.9919 77.3415 84.1629 77.657 83.0692 77.6608C81.9754 77.6646 81.1345 77.3551 80.5464 76.7321C79.9778 76.1091 79.6919 75.3484 79.6888 74.45ZM95.509 74.3945C95.5058 73.4765 95.7862 72.704 96.3505 72.077C96.9341 71.4305 97.7728 71.1052 98.8666 71.1014C99.9603 71.0976 100.792 71.4169 101.36 72.0595C101.948 72.6824 102.244 73.4528 102.247 74.3708C102.25 75.2692 101.96 76.032 101.376 76.659C100.812 77.286 99.9831 77.6014 98.8894 77.6053C97.7957 77.6091 96.9547 77.2996 96.3666 76.6766C95.798 76.0536 95.5121 75.2929 95.509 74.3945ZM111.329 74.3389C111.326 73.421 111.606 72.6485 112.171 72.0215C112.754 71.3749 113.593 71.0497 114.687 71.0459C115.781 71.042 116.612 71.3614 117.18 72.0039C117.769 72.6269 118.064 73.3973 118.067 74.3153C118.071 75.2137 117.78 75.9765 117.197 76.6035C116.632 77.2305 115.803 77.5459 114.71 77.5497C113.616 77.5536 112.775 77.244 112.187 76.6211C111.618 75.9981 111.332 75.2374 111.329 74.3389ZM127.149 74.2834C127.146 73.3654 127.427 72.593 127.991 71.966C128.575 71.3194 129.413 70.9942 130.507 70.9904C131.601 70.9865 132.432 71.3059 133.001 71.9484C133.589 72.5713 133.884 73.3418 133.888 74.2598C133.891 75.1582 133.601 75.9209 133.017 76.548C132.453 77.175 131.624 77.4904 130.53 77.4942C129.436 77.4981 128.595 77.1885 128.007 76.5656C127.438 75.9426 127.153 75.1818 127.149 74.2834ZM142.97 74.2279C142.966 73.3099 143.247 72.5375 143.811 71.9105C144.395 71.2639 145.233 70.9387 146.327 70.9348C147.421 70.931 148.252 71.2503 148.821 71.8929C149.409 72.5158 149.705 73.2863 149.708 74.2042C149.711 75.1027 149.421 75.8654 148.837 76.4925C148.273 77.1195 147.444 77.4349 146.35 77.4387C145.256 77.4425 144.415 77.133 143.827 76.51C143.259 75.887 142.973 75.1263 142.97 74.2279ZM158.79 74.1724C158.787 73.2544 159.067 72.4819 159.631 71.8549C160.215 71.2084 161.054 70.8832 162.147 70.8793C163.241 70.8755 164.072 71.1948 164.641 71.8374C165.229 72.4603 165.525 73.2308 165.528 74.1487C165.531 75.0471 165.241 75.8099 164.657 76.4369C164.093 77.0639 163.264 77.3793 162.17 77.3832C161.077 77.387 160.236 77.0775 159.647 76.4545C159.079 75.8315 158.793 75.0708 158.79 74.1724ZM174.61 74.1168C174.607 73.1989 174.887 72.4264 175.452 71.7994C176.035 71.1528 176.874 70.8276 177.968 70.8238C179.061 70.82 179.893 71.1393 180.461 71.7818C181.049 72.4048 181.345 73.1752 181.348 74.0932C181.351 74.9916 181.061 75.7544 180.477 76.3814C179.913 77.0084 179.084 77.3238 177.99 77.3277C176.897 77.3315 176.056 77.0219 175.468 76.399C174.899 75.776 174.613 75.0153 174.61 74.1168ZM190.43 74.0613C190.427 73.1434 190.708 72.3709 191.272 71.7439C191.855 71.0973 192.694 70.7721 193.788 70.7683C194.882 70.7644 195.713 71.0838 196.281 71.7263C196.87 72.3493 197.165 73.1197 197.169 74.0377C197.172 74.9361 196.881 75.6988 196.298 76.3259C195.733 76.9529 194.904 77.2683 193.811 77.2721C192.717 77.276 191.876 76.9664 191.288 76.3435C190.719 75.7205 190.433 74.9598 190.43 74.0613ZM206.25 74.0058C206.247 73.0878 206.528 72.3154 207.092 71.6884C207.676 71.0418 208.514 70.7166 209.608 70.7127C210.702 70.7089 211.533 71.0283 212.102 71.6708C212.69 72.2937 212.985 73.0642 212.989 73.9822C212.992 74.8806 212.702 75.6433 212.118 76.2704C211.554 76.8974 210.725 77.2128 209.631 77.2166C208.537 77.2204 207.696 76.9109 207.108 76.288C206.54 75.665 206.254 74.9042 206.25 74.0058ZM0.710516 109.727C0.707294 108.809 0.987788 108.037 1.552 107.41C2.13567 106.763 2.97438 106.438 4.06812 106.434C5.16186 106.43 5.99307 106.75 6.56173 107.392C7.14986 108.015 7.44553 108.786 7.44876 109.704C7.45191 110.602 7.16162 111.365 6.57787 111.992C6.01367 112.619 5.18469 112.934 4.09095 112.938C2.9972 112.942 2.15627 112.632 1.56814 112.01C0.999544 111.387 0.713669 110.626 0.710516 109.727ZM16.5307 109.672C16.5275 108.754 16.808 107.981 17.3722 107.354C17.9559 106.708 18.7946 106.383 19.8883 106.379C20.9821 106.375 21.8133 106.694 22.3819 107.337C22.9701 107.96 23.2657 108.73 23.269 109.648C23.2721 110.547 22.9818 111.309 22.3981 111.936C21.8339 112.563 21.0049 112.879 19.9112 112.883C18.8174 112.887 17.9765 112.577 17.3884 111.954C16.8198 111.331 16.5339 110.57 16.5307 109.672ZM32.3509 109.616C32.3477 108.698 32.6282 107.926 33.1924 107.299C33.7761 106.652 34.6148 106.327 35.7086 106.323C36.8023 106.319 37.6335 106.639 38.2022 107.281C38.7903 107.904 39.086 108.675 39.0892 109.593C39.0923 110.491 38.802 111.254 38.2183 111.881C37.6541 112.508 36.8251 112.823 35.7314 112.827C34.6376 112.831 33.7967 112.521 33.2086 111.898C32.64 111.275 32.3541 110.515 32.3509 109.616ZM48.1712 109.561C48.1679 108.643 48.4484 107.87 49.0126 107.243C49.5963 106.597 50.435 106.272 51.5288 106.268C52.6225 106.264 53.4537 106.583 54.0224 107.226C54.6105 107.849 54.9062 108.619 54.9094 109.537C54.9126 110.436 54.6223 111.198 54.0385 111.825C53.4743 112.452 52.6453 112.768 51.5516 112.772C50.4578 112.775 49.6169 112.466 49.0288 111.843C48.4602 111.22 48.1743 110.459 48.1712 109.561ZM63.9914 109.505C63.9882 108.587 64.2686 107.815 64.8329 107.188C65.4165 106.541 66.2552 106.216 67.349 106.212C68.4427 106.208 69.2739 106.528 69.8426 107.17C70.4307 107.793 70.7264 108.564 70.7296 109.482C70.7328 110.38 70.4425 111.143 69.8587 111.77C69.2945 112.397 68.4656 112.712 67.3718 112.716C66.2781 112.72 65.4371 112.41 64.849 111.787C64.2804 111.164 63.9945 110.404 63.9914 109.505ZM79.8116 109.45C79.8084 108.532 80.0889 107.759 80.6531 107.132C81.2367 106.486 82.0755 106.161 83.1692 106.157C84.2629 106.153 85.0941 106.472 85.6628 107.115C86.2509 107.738 86.5466 108.508 86.5498 109.426C86.553 110.325 86.2627 111.087 85.679 111.714C85.1147 112.341 84.2858 112.657 83.192 112.661C82.0983 112.664 81.2573 112.355 80.6692 111.732C80.1006 111.109 79.8147 110.348 79.8116 109.45ZM95.6318 109.394C95.6286 108.476 95.9091 107.704 96.4733 107.077C97.057 106.43 97.8957 106.105 98.9894 106.101C100.083 106.097 100.914 106.417 101.483 107.059C102.071 107.682 102.367 108.453 102.37 109.371C102.373 110.269 102.083 111.032 101.499 111.659C100.935 112.286 100.106 112.601 99.0122 112.605C97.9185 112.609 97.0776 112.299 96.4894 111.676C95.9208 111.053 95.635 110.293 95.6318 109.394ZM111.452 109.339C111.449 108.421 111.729 107.648 112.294 107.021C112.877 106.375 113.716 106.05 114.81 106.046C115.903 106.042 116.735 106.361 117.303 107.004C117.891 107.627 118.187 108.397 118.19 109.315C118.193 110.214 117.903 110.976 117.319 111.603C116.755 112.23 115.926 112.546 114.832 112.55C113.739 112.553 112.898 112.244 112.31 111.621C111.741 110.998 111.455 110.237 111.452 109.339ZM127.272 109.283C127.269 108.365 127.55 107.593 128.114 106.966C128.697 106.319 129.536 105.994 130.63 105.99C131.724 105.986 132.555 106.306 133.123 106.948C133.712 107.571 134.007 108.342 134.01 109.26C134.014 110.158 133.723 110.921 133.14 111.548C132.575 112.175 131.746 112.49 130.653 112.494C129.559 112.498 128.718 112.188 128.13 111.565C127.561 110.942 127.275 110.182 127.272 109.283ZM143.092 109.228C143.089 108.31 143.37 107.537 143.934 106.91C144.518 106.264 145.356 105.938 146.45 105.935C147.544 105.931 148.375 106.25 148.944 106.893C149.532 107.516 149.827 108.286 149.831 109.204C149.834 110.102 149.544 110.865 148.96 111.492C148.396 112.119 147.567 112.435 146.473 112.438C145.379 112.442 144.538 112.133 143.95 111.51C143.381 110.887 143.096 110.126 143.092 109.228ZM158.913 109.172C158.909 108.254 159.19 107.482 159.754 106.855C160.338 106.208 161.177 105.883 162.27 105.879C163.364 105.875 164.195 106.195 164.764 106.837C165.352 107.46 165.648 108.231 165.651 109.149C165.654 110.047 165.364 110.81 164.78 111.437C164.216 112.064 163.387 112.379 162.293 112.383C161.199 112.387 160.358 112.077 159.77 111.454C159.202 110.831 158.916 110.071 158.913 109.172ZM174.733 109.117C174.73 108.199 175.01 107.426 175.574 106.799C176.158 106.153 176.997 105.827 178.09 105.824C179.184 105.82 180.015 106.139 180.584 106.782C181.172 107.405 181.468 108.175 181.471 109.093C181.474 109.991 181.184 110.754 180.6 111.381C180.036 112.008 179.207 112.324 178.113 112.327C177.02 112.331 176.179 112.022 175.591 111.399C175.022 110.776 174.736 110.015 174.733 109.117ZM190.553 109.061C190.55 108.143 190.83 107.371 191.395 106.744C191.978 106.097 192.817 105.772 193.911 105.768C195.004 105.764 195.836 106.084 196.404 106.726C196.992 107.349 197.288 108.119 197.291 109.037C197.294 109.936 197.004 110.699 196.42 111.326C195.856 111.953 195.027 112.268 193.934 112.272C192.84 112.276 191.999 111.966 191.411 111.343C190.842 110.72 190.556 109.96 190.553 109.061ZM206.373 109.006C206.37 108.088 206.651 107.315 207.215 106.688C207.798 106.042 208.637 105.716 209.731 105.713C210.825 105.709 211.656 106.028 212.225 106.671C212.813 107.294 213.108 108.064 213.112 108.982C213.115 109.88 212.824 110.643 212.241 111.27C211.676 111.897 210.847 112.213 209.754 112.216C208.66 112.22 207.819 111.911 207.231 111.288C206.662 110.665 206.376 109.904 206.373 109.006Z" fill="#FF427B"/>
</svg>
