<svg width="245" height="113" viewBox="0 0 245 113" fill="none" xmlns="http://www.w3.org/2000/svg">
<path d="M0.342011 4.72808C0.33879 3.81012 0.619283 3.03764 1.18349 2.41066C1.76716 1.76408 2.60587 1.43887 3.69962 1.43503C4.79336 1.43119 5.62456 1.75054 6.19323 2.39308C6.78136 3.01602 7.07703 3.78647 7.08025 4.70443C7.0834 5.60286 6.79311 6.36561 6.20937 6.99266C5.64516 7.61964 4.81618 7.93506 3.72244 7.93889C2.6287 7.94273 1.78776 7.63318 1.19964 7.01024C0.631039 6.38723 0.345164 5.62651 0.342011 4.72808ZM16.1622 4.67256C16.159 3.7546 16.4395 2.98212 17.0037 2.35514C17.5874 1.70855 18.4261 1.38334 19.5198 1.3795C20.6136 1.37567 21.4448 1.69502 22.0134 2.33756C22.6016 2.9605 22.8972 3.73095 22.9005 4.64891C22.9036 5.54734 22.6133 6.31008 22.0296 6.93714C21.4654 7.56412 20.6364 7.87953 19.5427 7.88337C18.4489 7.88721 17.608 7.57766 17.0199 6.95472C16.4513 6.33171 16.1654 5.57099 16.1622 4.67256ZM31.9824 4.61704C31.9792 3.69907 32.2597 2.9266 32.8239 2.29962C33.4076 1.65303 34.2463 1.32782 35.34 1.32398C36.4338 1.32014 37.265 1.63949 37.8337 2.28203C38.4218 2.90497 38.7175 3.67542 38.7207 4.59339C38.7238 5.49182 38.4335 6.25456 37.8498 6.88161C37.2856 7.5086 36.4566 7.82401 35.3629 7.82785C34.2691 7.83169 33.4282 7.52214 32.8401 6.8992C32.2715 6.27619 31.9856 5.51547 31.9824 4.61704ZM47.8027 4.56151C47.7994 3.64355 48.0799 2.87108 48.6441 2.24409C49.2278 1.59751 50.0665 1.2723 51.1603 1.26846C52.254 1.26462 53.0852 1.58397 53.6539 2.22651C54.242 2.84945 54.5377 3.6199 54.5409 4.53787C54.5441 5.4363 54.2538 6.19904 53.67 6.82609C53.1058 7.45308 52.2768 7.76849 51.1831 7.77233C50.0893 7.77616 49.2484 7.46661 48.6603 6.84367C48.0917 6.22067 47.8058 5.45995 47.8027 4.56151ZM63.6229 4.50599C63.6197 3.58803 63.9001 2.81555 64.4644 2.18857C65.048 1.54199 65.8867 1.21678 66.9805 1.21294C68.0742 1.2091 68.9054 1.52845 69.4741 2.17099C70.0622 2.79393 70.3579 3.56438 70.3611 4.48234C70.3643 5.38078 70.074 6.14352 69.4902 6.77057C68.926 7.39755 68.097 7.71297 67.0033 7.7168C65.9096 7.72064 65.0686 7.41109 64.4805 6.78815C63.9119 6.16514 63.626 5.40442 63.6229 4.50599ZM79.4431 4.45047C79.4399 3.53251 79.7204 2.76003 80.2846 2.13305C80.8682 1.48646 81.7069 1.16125 82.8007 1.15742C83.8944 1.15358 84.7256 1.47293 85.2943 2.11547C85.8824 2.73841 86.1781 3.50886 86.1813 4.42682C86.1845 5.32525 85.8942 6.088 85.3104 6.71505C84.7462 7.34203 83.9173 7.65744 82.8235 7.66128C81.7298 7.66512 80.8888 7.35557 80.3007 6.73263C79.7321 6.10962 79.4462 5.3489 79.4431 4.45047ZM95.2633 4.39495C95.2601 3.47698 95.5406 2.70451 96.1048 2.07753C96.6885 1.43094 97.5272 1.10573 98.6209 1.10189C99.7147 1.09805 100.546 1.4174 101.115 2.05994C101.703 2.68288 101.998 3.45334 102.002 4.3713C102.005 5.26973 101.714 6.03247 101.131 6.65953C100.566 7.28651 99.7375 7.60192 98.6437 7.60576C97.55 7.6096 96.7091 7.30005 96.1209 6.67711C95.5523 6.0541 95.2665 5.29338 95.2633 4.39495ZM111.084 4.33942C111.08 3.42146 111.361 2.64899 111.925 2.022C112.509 1.37542 113.347 1.05021 114.441 1.04637C115.535 1.04253 116.366 1.36188 116.935 2.00442C117.523 2.62736 117.819 3.39781 117.822 4.31578C117.825 5.21421 117.535 5.97695 116.951 6.604C116.387 7.23099 115.558 7.5464 114.464 7.55024C113.37 7.55408 112.529 7.24452 111.941 6.62158C111.373 5.99858 111.087 5.23786 111.084 4.33942ZM126.904 4.2839C126.901 3.36594 127.181 2.59347 127.745 1.96648C128.329 1.3199 129.168 0.994686 130.261 0.990848C131.355 0.987009 132.186 1.30636 132.755 1.9489C133.343 2.57184 133.639 3.34229 133.642 4.26025C133.645 5.15869 133.355 5.92143 132.771 6.54848C132.207 7.17546 131.378 7.49088 130.284 7.49471C129.19 7.49855 128.349 7.189 127.761 6.56606C127.193 5.94305 126.907 5.18233 126.904 4.2839ZM142.724 4.22838C142.721 3.31042 143.001 2.53794 143.565 1.91096C144.149 1.26438 144.988 0.939164 146.082 0.935325C147.175 0.931487 148.007 1.25084 148.575 1.89338C149.163 2.51632 149.459 3.28677 149.462 4.20473C149.465 5.10316 149.175 5.86591 148.591 6.49296C148.027 7.11994 147.198 7.43535 146.104 7.43919C145.011 7.44303 144.17 7.13348 143.582 6.51054C143.013 5.88753 142.727 5.12681 142.724 4.22838ZM158.544 4.17286C158.541 3.25489 158.821 2.48242 159.386 1.85544C159.969 1.20885 160.808 0.883642 161.902 0.879803C162.996 0.875964 163.827 1.19531 164.395 1.83785C164.984 2.46079 165.279 3.23125 165.282 4.14921C165.286 5.04764 164.995 5.81038 164.412 6.43744C163.847 7.06442 163.018 7.37983 161.925 7.38367C160.831 7.38751 159.99 7.07796 159.402 6.45502C158.833 5.83201 158.547 5.07129 158.544 4.17286ZM174.364 4.11733C174.361 3.19937 174.642 2.4269 175.206 1.79991C175.79 1.15333 176.628 0.828119 177.722 0.824281C178.816 0.820442 179.647 1.13979 180.216 1.78233C180.804 2.40527 181.099 3.17572 181.103 4.09369C181.106 4.99212 180.815 5.75486 180.232 6.38191C179.668 7.0089 178.839 7.32431 177.745 7.32815C176.651 7.33199 175.81 7.02243 175.222 6.3995C174.653 5.77649 174.368 5.01577 174.364 4.11733ZM190.185 4.06181C190.181 3.14385 190.462 2.37138 191.026 1.74439C191.61 1.09781 192.448 0.772597 193.542 0.768758C194.636 0.76492 195.467 1.08427 196.036 1.72681C196.624 2.34975 196.92 3.1202 196.923 4.03816C196.926 4.9366 196.636 5.69934 196.052 6.32639C195.488 6.95337 194.659 7.26879 193.565 7.27262C192.471 7.27646 191.63 6.96691 191.042 6.34397C190.474 5.72096 190.188 4.96024 190.185 4.06181ZM206.005 4.00629C206.002 3.08833 206.282 2.31585 206.846 1.68887C207.43 1.04229 208.269 0.717074 209.362 0.713236C210.456 0.709397 211.287 1.02875 211.856 1.67129C212.444 2.29423 212.74 3.06468 212.743 3.98264C212.746 4.88107 212.456 5.64382 211.872 6.27087C211.308 6.89785 210.479 7.21326 209.385 7.2171C208.291 7.22094 207.451 6.91139 206.862 6.28845C206.294 5.66544 206.008 4.90472 206.005 4.00629ZM221.825 3.95077C221.822 3.0328 222.102 2.26033 222.667 1.63335C223.25 0.986763 224.089 0.661552 225.183 0.657713C226.276 0.653875 227.108 0.973225 227.676 1.61576C228.264 2.2387 228.56 3.00916 228.563 3.92712C228.566 4.82555 228.276 5.58829 227.692 6.21535C227.128 6.84233 226.299 7.15774 225.205 7.16158C224.112 7.16542 223.271 6.85587 222.683 6.23293C222.114 5.60992 221.828 4.8492 221.825 3.95077ZM237.645 3.89524C237.642 2.97728 237.923 2.20481 238.487 1.57782C239.07 0.931241 239.909 0.606029 241.003 0.602191C242.097 0.598352 242.928 0.917703 243.496 1.56024C244.085 2.18318 244.38 2.95363 244.383 3.8716C244.387 4.77003 244.096 5.53277 243.513 6.15982C242.948 6.78681 242.119 7.10222 241.026 7.10606C239.932 7.1099 239.091 6.80035 238.503 6.17741C237.934 5.5544 237.648 4.79368 237.645 3.89524ZM0.464846 39.7279C0.461624 38.8099 0.742118 38.0374 1.30633 37.4104C1.89 36.7639 2.72871 36.4387 3.82245 36.4348C4.91619 36.431 5.7474 36.7503 6.31606 37.3929C6.90419 38.0158 7.19986 38.7863 7.20309 39.7042C7.20624 40.6027 6.91595 41.3654 6.33221 41.9924C5.768 42.6194 4.93902 42.9348 3.84528 42.9387C2.75153 42.9425 1.9106 42.633 1.32247 42.01C0.753874 41.387 0.467999 40.6263 0.464846 39.7279ZM16.2851 39.6723C16.2818 38.7544 16.5623 37.9819 17.1265 37.3549C17.7102 36.7083 18.5489 36.3831 19.6427 36.3793C20.7364 36.3755 21.5676 36.6948 22.1363 37.3373C22.7244 37.9603 23.0201 38.7307 23.0233 39.6487C23.0265 40.5471 22.7362 41.3099 22.1524 41.9369C21.5882 42.5639 20.7592 42.8793 19.6655 42.8832C18.5717 42.887 17.7308 42.5774 17.1427 41.9545C16.5741 41.3315 16.2882 40.5708 16.2851 39.6723ZM32.1053 39.6168C32.1021 38.6989 32.3825 37.9264 32.9468 37.2994C33.5304 36.6528 34.3691 36.3276 35.4629 36.3238C36.5566 36.3199 37.3878 36.6393 37.9565 37.2818C38.5446 37.9048 38.8403 38.6752 38.8435 39.5932C38.8467 40.4916 38.5564 41.2543 37.9726 41.8814C37.4084 42.5084 36.5795 42.8238 35.4857 42.8276C34.392 42.8315 33.551 42.5219 32.9629 41.899C32.3943 41.276 32.1084 40.5153 32.1053 39.6168ZM47.9255 39.5613C47.9223 38.6433 48.2028 37.8709 48.767 37.2439C49.3506 36.5973 50.1894 36.2721 51.2831 36.2682C52.3768 36.2644 53.208 36.5838 53.7767 37.2263C54.3648 37.8492 54.6605 38.6197 54.6637 39.5377C54.6669 40.4361 54.3766 41.1988 53.7929 41.8259C53.2286 42.4529 52.3997 42.7683 51.3059 42.7721C50.2122 42.776 49.3712 42.4664 48.7831 41.8435C48.2145 41.2205 47.9286 40.4597 47.9255 39.5613ZM63.7457 39.5058C63.7425 38.5878 64.023 37.8153 64.5872 37.1884C65.1709 36.5418 66.0096 36.2166 67.1033 36.2127C68.1971 36.2089 69.0283 36.5282 69.5969 37.1708C70.1851 37.7937 70.4807 38.5642 70.4839 39.4821C70.4871 40.3806 70.1968 41.1433 69.6131 41.7704C69.0489 42.3973 68.2199 42.7128 67.1261 42.7166C66.0324 42.7204 65.1915 42.4109 64.6033 41.7879C64.0347 41.1649 63.7489 40.4042 63.7457 39.5058ZM79.5659 39.4503C79.5627 38.5323 79.8432 37.7598 80.4074 37.1328C80.9911 36.4862 81.8298 36.161 82.9235 36.1572C84.0173 36.1534 84.8485 36.4727 85.4171 37.1153C86.0053 37.7382 86.3009 38.5086 86.3042 39.4266C86.3073 40.325 86.017 41.0878 85.4333 41.7148C84.8691 42.3418 84.0401 42.6572 82.9464 42.6611C81.8526 42.6649 81.0117 42.3554 80.4235 41.7324C79.855 41.1094 79.5691 40.3487 79.5659 39.4503ZM95.3861 39.3947C95.3829 38.4768 95.6634 37.7043 96.2276 37.0773C96.8113 36.4307 97.65 36.1055 98.7437 36.1017C99.8375 36.0978 100.669 36.4172 101.237 37.0597C101.825 37.6827 102.121 38.4531 102.124 39.3711C102.128 40.2695 101.837 41.0323 101.253 41.6593C100.689 42.2863 99.8603 42.6017 98.7666 42.6055C97.6728 42.6094 96.8319 42.2998 96.2438 41.6769C95.6752 41.0539 95.3893 40.2932 95.3861 39.3947ZM111.206 39.3392C111.203 38.4212 111.484 37.6488 112.048 37.0218C112.632 36.3752 113.47 36.05 114.564 36.0462C115.658 36.0423 116.489 36.3617 117.058 37.0042C117.646 37.6271 117.941 38.3976 117.945 39.3156C117.948 40.214 117.657 40.9767 117.074 41.6038C116.51 42.2308 115.681 42.5462 114.587 42.55C113.493 42.5539 112.652 42.2443 112.064 41.6214C111.495 40.9984 111.21 40.2376 111.206 39.3392ZM127.027 39.2837C127.023 38.3657 127.304 37.5933 127.868 36.9663C128.452 36.3197 129.29 35.9945 130.384 35.9906C131.478 35.9868 132.309 36.3061 132.878 36.9487C133.466 37.5716 133.762 38.3421 133.765 39.26C133.768 40.1585 133.478 40.9212 132.894 41.5483C132.33 42.1752 131.501 42.4907 130.407 42.4945C129.313 42.4983 128.472 42.1888 127.884 41.5658C127.316 40.9428 127.03 40.1821 127.027 39.2837ZM142.847 39.2282C142.844 38.3102 143.124 37.5377 143.688 36.9107C144.272 36.2642 145.111 35.9389 146.204 35.9351C147.298 35.9313 148.129 36.2506 148.698 36.8932C149.286 37.5161 149.582 38.2866 149.585 39.2045C149.588 40.1029 149.298 40.8657 148.714 41.4927C148.15 42.1197 147.321 42.4351 146.227 42.439C145.133 42.4428 144.293 42.1333 143.704 41.5103C143.136 40.8873 142.85 40.1266 142.847 39.2282ZM158.667 39.1726C158.664 38.2547 158.944 37.4822 159.508 36.8552C160.092 36.2086 160.931 35.8834 162.025 35.8796C163.118 35.8757 163.95 36.1951 164.518 36.8376C165.106 37.4606 165.402 38.231 165.405 39.149C165.408 40.0474 165.118 40.8102 164.534 41.4372C163.97 42.0642 163.141 42.3796 162.047 42.3835C160.954 42.3873 160.113 42.0777 159.525 41.4548C158.956 40.8318 158.67 40.0711 158.667 39.1726ZM174.487 39.1171C174.484 38.1992 174.764 37.4267 175.329 36.7997C175.912 36.1531 176.751 35.8279 177.845 35.8241C178.939 35.8202 179.77 36.1396 180.338 36.7821C180.927 37.4051 181.222 38.1755 181.225 39.0935C181.229 39.9919 180.938 40.7546 180.355 41.3817C179.79 42.0087 178.961 42.3241 177.868 42.3279C176.774 42.3318 175.933 42.0222 175.345 41.3993C174.776 40.7763 174.49 40.0156 174.487 39.1171ZM190.307 39.0616C190.304 38.1436 190.585 37.3712 191.149 36.7442C191.733 36.0976 192.571 35.7724 193.665 35.7685C194.759 35.7647 195.59 36.0841 196.159 36.7266C196.747 37.3495 197.042 38.12 197.046 39.0379C197.049 39.9364 196.759 40.6991 196.175 41.3262C195.611 41.9532 194.782 42.2686 193.688 42.2724C192.594 42.2762 191.753 41.9667 191.165 41.3438C190.596 40.7207 190.311 39.96 190.307 39.0616ZM206.128 39.0061C206.124 38.0881 206.405 37.3156 206.969 36.6887C207.553 36.0421 208.392 35.7169 209.485 35.713C210.579 35.7092 211.41 36.0285 211.979 36.6711C212.567 37.294 212.863 38.0645 212.866 38.9824C212.869 39.8809 212.579 40.6436 211.995 41.2707C211.431 41.8976 210.602 42.213 209.508 42.2169C208.414 42.2207 207.573 41.9112 206.985 41.2882C206.417 40.6652 206.131 39.9045 206.128 39.0061ZM221.948 38.9506C221.945 38.0326 222.225 37.2601 222.789 36.6331C223.373 35.9865 224.212 35.6613 225.305 35.6575C226.399 35.6537 227.23 35.973 227.799 36.6155C228.387 37.2385 228.683 38.0089 228.686 38.9269C228.689 39.8253 228.399 40.5881 227.815 41.2151C227.251 41.8421 226.422 42.1575 225.328 42.1614C224.235 42.1652 223.394 41.8557 222.805 41.2327C222.237 40.6097 221.951 39.849 221.948 38.9506ZM237.768 38.895C237.765 37.9771 238.045 37.2046 238.61 36.5776C239.193 35.931 240.032 35.6058 241.126 35.602C242.219 35.5981 243.051 35.9175 243.619 36.56C244.207 37.183 244.503 37.9534 244.506 38.8714C244.509 39.7698 244.219 40.5326 243.635 41.1596C243.071 41.7866 242.242 42.102 241.149 42.1058C240.055 42.1097 239.214 41.8001 238.626 41.1772C238.057 40.5542 237.771 39.7935 237.768 38.895ZM0.587681 74.7277C0.584459 73.8097 0.864953 73.0372 1.42916 72.4102C2.01283 71.7636 2.85154 71.4384 3.94529 71.4346C5.03903 71.4308 5.87023 71.7501 6.4389 72.3926C7.02702 73.0156 7.3227 73.786 7.32592 74.704C7.32907 75.6024 7.03878 76.3652 6.45504 76.9922C5.89083 77.6192 5.06185 77.9346 3.96811 77.9385C2.87437 77.9423 2.03343 77.6328 1.44531 77.0098C0.876709 76.3868 0.590834 75.6261 0.587681 74.7277ZM16.4079 74.6721C16.4047 73.7542 16.6852 72.9817 17.2494 72.3547C17.833 71.7081 18.6718 71.3829 19.7655 71.3791C20.8592 71.3752 21.6904 71.6946 22.2591 72.3371C22.8472 72.9601 23.1429 73.7305 23.1461 74.6485C23.1493 75.5469 22.859 76.3097 22.2753 76.9367C21.711 77.5637 20.8821 77.8791 19.7883 77.8829C18.6946 77.8868 17.8536 77.5772 17.2655 76.9543C16.6969 76.3313 16.411 75.5706 16.4079 74.6721ZM32.2281 74.6166C32.2249 73.6986 32.5054 72.9262 33.0696 72.2992C33.6533 71.6526 34.492 71.3274 35.5857 71.3236C36.6795 71.3197 37.5107 71.6391 38.0793 72.2816C38.6675 72.9045 38.9631 73.675 38.9664 74.593C38.9695 75.4914 38.6792 76.2541 38.0955 76.8812C37.5313 77.5082 36.7023 77.8236 35.6085 77.8274C34.5148 77.8313 33.6739 77.5217 33.0857 76.8988C32.5171 76.2758 32.2313 75.515 32.2281 74.6166ZM48.0483 74.5611C48.0451 73.6431 48.3256 72.8706 48.8898 72.2437C49.4735 71.5971 50.3122 71.2719 51.4059 71.268C52.4997 71.2642 53.3309 71.5835 53.8995 72.2261C54.4877 72.849 54.7833 73.6195 54.7866 74.5374C54.7897 75.4359 54.4994 76.1986 53.9157 76.8257C53.3515 77.4526 52.5225 77.7681 51.4288 77.7719C50.335 77.7757 49.4941 77.4662 48.906 76.8432C48.3374 76.2202 48.0515 75.4595 48.0483 74.5611ZM63.8685 74.5056C63.8653 73.5876 64.1458 72.8151 64.71 72.1881C65.2937 71.5416 66.1324 71.2163 67.2261 71.2125C68.3199 71.2087 69.1511 71.528 69.7198 72.1706C70.3079 72.7935 70.6036 73.564 70.6068 74.4819C70.6099 75.3803 70.3196 76.1431 69.7359 76.7701C69.1717 77.3971 68.3427 77.7125 67.249 77.7164C66.1552 77.7202 65.3143 77.4107 64.7262 76.7877C64.1576 76.1647 63.8717 75.404 63.8685 74.5056ZM79.6888 74.45C79.6855 73.5321 79.966 72.7596 80.5302 72.1326C81.1139 71.486 81.9526 71.1608 83.0464 71.157C84.1401 71.1531 84.9713 71.4725 85.54 72.115C86.1281 72.738 86.4238 73.5084 86.427 74.4264C86.4302 75.3248 86.1399 76.0876 85.5561 76.7146C84.9919 77.3416 84.1629 77.657 83.0692 77.6609C81.9754 77.6647 81.1345 77.3551 80.5464 76.7322C79.9778 76.1092 79.6919 75.3485 79.6888 74.45ZM95.509 74.3945C95.5058 73.4766 95.7862 72.7041 96.3505 72.0771C96.9341 71.4305 97.7728 71.1053 98.8666 71.1015C99.9603 71.0976 100.792 71.417 101.36 72.0595C101.948 72.6825 102.244 73.4529 102.247 74.3709C102.25 75.2693 101.96 76.032 101.376 76.6591C100.812 77.2861 99.9831 77.6015 98.8894 77.6053C97.7957 77.6092 96.9547 77.2996 96.3666 76.6767C95.798 76.0537 95.5121 75.2929 95.509 74.3945ZM111.329 74.339C111.326 73.421 111.606 72.6486 112.171 72.0216C112.754 71.375 113.593 71.0498 114.687 71.0459C115.781 71.0421 116.612 71.3615 117.18 72.004C117.769 72.6269 118.064 73.3974 118.067 74.3153C118.071 75.2138 117.78 75.9765 117.197 76.6036C116.632 77.2306 115.803 77.546 114.71 77.5498C113.616 77.5536 112.775 77.2441 112.187 76.6212C111.618 75.9981 111.332 75.2374 111.329 74.339ZM127.149 74.2835C127.146 73.3655 127.427 72.593 127.991 71.9661C128.575 71.3195 129.413 70.9943 130.507 70.9904C131.601 70.9866 132.432 71.3059 133.001 71.9485C133.589 72.5714 133.884 73.3419 133.888 74.2598C133.891 75.1583 133.601 75.921 133.017 76.5481C132.453 77.175 131.624 77.4904 130.53 77.4943C129.436 77.4981 128.595 77.1886 128.007 76.5656C127.438 75.9426 127.153 75.1819 127.149 74.2835ZM142.97 74.2279C142.966 73.31 143.247 72.5375 143.811 71.9105C144.395 71.2639 145.233 70.9387 146.327 70.9349C147.421 70.9311 148.252 71.2504 148.821 71.8929C149.409 72.5159 149.705 73.2863 149.708 74.2043C149.711 75.1027 149.421 75.8655 148.837 76.4925C148.273 77.1195 147.444 77.4349 146.35 77.4388C145.256 77.4426 144.415 77.133 143.827 76.5101C143.259 75.8871 142.973 75.1264 142.97 74.2279ZM158.79 74.1724C158.787 73.2545 159.067 72.482 159.631 71.855C160.215 71.2084 161.054 70.8832 162.147 70.8794C163.241 70.8755 164.072 71.1949 164.641 71.8374C165.229 72.4604 165.525 73.2308 165.528 74.1488C165.531 75.0472 165.241 75.81 164.657 76.437C164.093 77.064 163.264 77.3794 162.17 77.3832C161.077 77.3871 160.236 77.0775 159.647 76.4546C159.079 75.8316 158.793 75.0709 158.79 74.1724ZM174.61 74.1169C174.607 73.1989 174.887 72.4265 175.452 71.7995C176.035 71.1529 176.874 70.8277 177.968 70.8239C179.061 70.82 179.893 71.1394 180.461 71.7819C181.049 72.4048 181.345 73.1753 181.348 74.0933C181.351 74.9917 181.061 75.7544 180.477 76.3815C179.913 77.0085 179.084 77.3239 177.99 77.3277C176.897 77.3316 176.056 77.022 175.468 76.3991C174.899 75.7761 174.613 75.0153 174.61 74.1169ZM190.43 74.0614C190.427 73.1434 190.708 72.3709 191.272 71.744C191.855 71.0974 192.694 70.7722 193.788 70.7683C194.882 70.7645 195.713 71.0838 196.281 71.7264C196.87 72.3493 197.165 73.1198 197.169 74.0377C197.172 74.9362 196.881 75.6989 196.298 76.326C195.733 76.9529 194.904 77.2684 193.811 77.2722C192.717 77.276 191.876 76.9665 191.288 76.3435C190.719 75.7205 190.433 74.9598 190.43 74.0614ZM206.25 74.0059C206.247 73.0879 206.528 72.3154 207.092 71.6884C207.676 71.0419 208.514 70.7166 209.608 70.7128C210.702 70.709 211.533 71.0283 212.102 71.6709C212.69 72.2938 212.985 73.0642 212.989 73.9822C212.992 74.8806 212.702 75.6434 212.118 76.2704C211.554 76.8974 210.725 77.2128 209.631 77.2167C208.537 77.2205 207.696 76.911 207.108 76.288C206.54 75.665 206.254 74.9043 206.25 74.0059ZM222.071 73.9503C222.067 73.0324 222.348 72.2599 222.912 71.6329C223.496 70.9863 224.335 70.6611 225.428 70.6573C226.522 70.6534 227.353 70.9728 227.922 71.6153C228.51 72.2383 228.806 73.0087 228.809 73.9267C228.812 74.8251 228.522 75.5879 227.938 76.2149C227.374 76.8419 226.545 77.1573 225.451 77.1611C224.357 77.165 223.516 76.8554 222.928 76.2325C222.36 75.6095 222.074 74.8488 222.071 73.9503ZM237.891 73.8948C237.888 72.9769 238.168 72.2044 238.732 71.5774C239.316 70.9308 240.155 70.6056 241.249 70.6018C242.342 70.5979 243.173 70.9173 243.742 71.5598C244.33 72.1828 244.626 72.9532 244.629 73.8712C244.632 74.7696 244.342 75.5323 243.758 76.1594C243.194 76.7864 242.365 77.1018 241.271 77.1056C240.178 77.1095 239.337 76.7999 238.749 76.177C238.18 75.554 237.894 74.7932 237.891 73.8948ZM0.710516 109.727C0.707294 108.809 0.987788 108.037 1.552 107.41C2.13567 106.763 2.97438 106.438 4.06812 106.434C5.16186 106.431 5.99307 106.75 6.56173 107.392C7.14986 108.015 7.44553 108.786 7.44876 109.704C7.45191 110.602 7.16162 111.365 6.57787 111.992C6.01367 112.619 5.18469 112.934 4.09095 112.938C2.9972 112.942 2.15627 112.633 1.56814 112.01C0.999544 111.387 0.713669 110.626 0.710516 109.727ZM16.5307 109.672C16.5275 108.754 16.808 107.981 17.3722 107.354C17.9559 106.708 18.7946 106.383 19.8883 106.379C20.9821 106.375 21.8133 106.694 22.3819 107.337C22.9701 107.96 23.2657 108.73 23.269 109.648C23.2721 110.547 22.9818 111.309 22.3981 111.936C21.8339 112.563 21.0049 112.879 19.9112 112.883C18.8174 112.887 17.9765 112.577 17.3884 111.954C16.8198 111.331 16.5339 110.57 16.5307 109.672ZM32.3509 109.616C32.3477 108.698 32.6282 107.926 33.1924 107.299C33.7761 106.652 34.6148 106.327 35.7086 106.323C36.8023 106.319 37.6335 106.639 38.2022 107.281C38.7903 107.904 39.086 108.675 39.0892 109.593C39.0923 110.491 38.802 111.254 38.2183 111.881C37.6541 112.508 36.8251 112.823 35.7314 112.827C34.6376 112.831 33.7967 112.521 33.2086 111.899C32.64 111.276 32.3541 110.515 32.3509 109.616ZM48.1712 109.561C48.1679 108.643 48.4484 107.87 49.0126 107.243C49.5963 106.597 50.435 106.272 51.5288 106.268C52.6225 106.264 53.4537 106.583 54.0224 107.226C54.6105 107.849 54.9062 108.619 54.9094 109.537C54.9126 110.436 54.6223 111.198 54.0385 111.825C53.4743 112.452 52.6453 112.768 51.5516 112.772C50.4578 112.776 49.6169 112.466 49.0288 111.843C48.4602 111.22 48.1743 110.459 48.1712 109.561ZM63.9914 109.505C63.9882 108.587 64.2686 107.815 64.8329 107.188C65.4165 106.541 66.2552 106.216 67.349 106.212C68.4427 106.208 69.2739 106.528 69.8426 107.17C70.4307 107.793 70.7264 108.564 70.7296 109.482C70.7328 110.38 70.4425 111.143 69.8587 111.77C69.2945 112.397 68.4656 112.712 67.3718 112.716C66.2781 112.72 65.4371 112.41 64.849 111.788C64.2804 111.164 63.9945 110.404 63.9914 109.505ZM79.8116 109.45C79.8084 108.532 80.0889 107.759 80.6531 107.132C81.2367 106.486 82.0755 106.161 83.1692 106.157C84.2629 106.153 85.0941 106.472 85.6628 107.115C86.2509 107.738 86.5466 108.508 86.5498 109.426C86.553 110.325 86.2627 111.087 85.679 111.714C85.1147 112.341 84.2858 112.657 83.192 112.661C82.0983 112.664 81.2573 112.355 80.6692 111.732C80.1006 111.109 79.8147 110.348 79.8116 109.45ZM95.6318 109.394C95.6286 108.476 95.9091 107.704 96.4733 107.077C97.057 106.43 97.8957 106.105 98.9894 106.101C100.083 106.097 100.914 106.417 101.483 107.059C102.071 107.682 102.367 108.453 102.37 109.371C102.373 110.269 102.083 111.032 101.499 111.659C100.935 112.286 100.106 112.601 99.0122 112.605C97.9185 112.609 97.0776 112.299 96.4894 111.676C95.9208 111.053 95.635 110.293 95.6318 109.394ZM111.452 109.339C111.449 108.421 111.729 107.648 112.294 107.021C112.877 106.375 113.716 106.05 114.81 106.046C115.903 106.042 116.735 106.361 117.303 107.004C117.891 107.627 118.187 108.397 118.19 109.315C118.193 110.214 117.903 110.976 117.319 111.603C116.755 112.23 115.926 112.546 114.832 112.55C113.739 112.553 112.898 112.244 112.31 111.621C111.741 110.998 111.455 110.237 111.452 109.339ZM127.272 109.283C127.269 108.365 127.55 107.593 128.114 106.966C128.697 106.319 129.536 105.994 130.63 105.99C131.724 105.986 132.555 106.306 133.123 106.948C133.712 107.571 134.007 108.342 134.01 109.26C134.014 110.158 133.723 110.921 133.14 111.548C132.575 112.175 131.746 112.49 130.653 112.494C129.559 112.498 128.718 112.188 128.13 111.565C127.561 110.942 127.275 110.182 127.272 109.283ZM143.092 109.228C143.089 108.31 143.37 107.537 143.934 106.91C144.518 106.264 145.356 105.939 146.45 105.935C147.544 105.931 148.375 106.25 148.944 106.893C149.532 107.516 149.827 108.286 149.831 109.204C149.834 110.103 149.544 110.865 148.96 111.492C148.396 112.119 147.567 112.435 146.473 112.439C145.379 112.442 144.538 112.133 143.95 111.51C143.381 110.887 143.096 110.126 143.092 109.228ZM158.913 109.172C158.909 108.254 159.19 107.482 159.754 106.855C160.338 106.208 161.177 105.883 162.27 105.879C163.364 105.875 164.195 106.195 164.764 106.837C165.352 107.46 165.648 108.231 165.651 109.149C165.654 110.047 165.364 110.81 164.78 111.437C164.216 112.064 163.387 112.379 162.293 112.383C161.199 112.387 160.358 112.077 159.77 111.454C159.202 110.831 158.916 110.071 158.913 109.172ZM174.733 109.117C174.73 108.199 175.01 107.426 175.574 106.799C176.158 106.153 176.997 105.827 178.09 105.824C179.184 105.82 180.015 106.139 180.584 106.782C181.172 107.405 181.468 108.175 181.471 109.093C181.474 109.991 181.184 110.754 180.6 111.381C180.036 112.008 179.207 112.324 178.113 112.328C177.02 112.331 176.179 112.022 175.591 111.399C175.022 110.776 174.736 110.015 174.733 109.117ZM190.553 109.061C190.55 108.143 190.83 107.371 191.395 106.744C191.978 106.097 192.817 105.772 193.911 105.768C195.004 105.764 195.836 106.084 196.404 106.726C196.992 107.349 197.288 108.12 197.291 109.038C197.294 109.936 197.004 110.699 196.42 111.326C195.856 111.953 195.027 112.268 193.934 112.272C192.84 112.276 191.999 111.966 191.411 111.343C190.842 110.72 190.556 109.96 190.553 109.061ZM206.373 109.006C206.37 108.088 206.651 107.315 207.215 106.688C207.798 106.042 208.637 105.716 209.731 105.713C210.825 105.709 211.656 106.028 212.225 106.671C212.813 107.294 213.108 108.064 213.112 108.982C213.115 109.88 212.824 110.643 212.241 111.27C211.676 111.897 210.847 112.213 209.754 112.216C208.66 112.22 207.819 111.911 207.231 111.288C206.662 110.665 206.376 109.904 206.373 109.006ZM222.194 108.95C222.19 108.032 222.471 107.26 223.035 106.633C223.619 105.986 224.457 105.661 225.551 105.657C226.645 105.653 227.476 105.973 228.045 106.615C228.633 107.238 228.929 108.009 228.932 108.926C228.935 109.825 228.645 110.588 228.061 111.215C227.497 111.842 226.668 112.157 225.574 112.161C224.48 112.165 223.639 111.855 223.051 111.232C222.483 110.609 222.197 109.849 222.194 108.95ZM238.014 108.895C238.011 107.977 238.291 107.204 238.855 106.577C239.439 105.931 240.278 105.605 241.371 105.602C242.465 105.598 243.296 105.917 243.865 106.56C244.453 107.183 244.749 107.953 244.752 108.871C244.755 109.769 244.465 110.532 243.881 111.159C243.317 111.786 242.488 112.102 241.394 112.105C240.3 112.109 239.459 111.8 238.871 111.177C238.303 110.554 238.017 109.793 238.014 108.895Z" fill="#2EFFC0"/>
</svg>
