<svg width="166" height="148" viewBox="0 0 166 148" fill="none" xmlns="http://www.w3.org/2000/svg">
<path d="M0.342011 4.72814C0.33879 3.81018 0.619283 3.03771 1.18349 2.41072C1.76716 1.76414 2.60587 1.43893 3.69962 1.43509C4.79336 1.43125 5.62456 1.7506 6.19323 2.39314C6.78136 3.01608 7.07703 3.78653 7.08025 4.70449C7.0834 5.60293 6.79311 6.36567 6.20937 6.99272C5.64516 7.6197 4.81618 7.93512 3.72244 7.93895C2.6287 7.94279 1.78776 7.63324 1.19964 7.0103C0.631039 6.38729 0.345164 5.62657 0.342011 4.72814ZM16.1622 4.67262C16.159 3.75466 16.4395 2.98218 17.0037 2.3552C17.5874 1.70862 18.4261 1.3834 19.5198 1.37957C20.6136 1.37573 21.4448 1.69508 22.0134 2.33762C22.6016 2.96056 22.8972 3.73101 22.9005 4.64897C22.9036 5.5474 22.6133 6.31015 22.0296 6.9372C21.4654 7.56418 20.6364 7.87959 19.5427 7.88343C18.4489 7.88727 17.608 7.57772 17.0199 6.95478C16.4513 6.33177 16.1654 5.57105 16.1622 4.67262ZM31.9824 4.6171C31.9792 3.69913 32.2597 2.92666 32.8239 2.29968C33.4076 1.65309 34.2463 1.32788 35.34 1.32404C36.4338 1.3202 37.265 1.63956 37.8337 2.28209C38.4218 2.90503 38.7175 3.67549 38.7207 4.59345C38.7238 5.49188 38.4335 6.25462 37.8498 6.88168C37.2856 7.50866 36.4566 7.82407 35.3629 7.82791C34.2691 7.83175 33.4282 7.5222 32.8401 6.89926C32.2715 6.27625 31.9856 5.51553 31.9824 4.6171ZM47.8027 4.56158C47.7994 3.64361 48.0799 2.87114 48.6441 2.24415C49.2278 1.59757 50.0665 1.27236 51.1603 1.26852C52.254 1.26468 53.0852 1.58403 53.6539 2.22657C54.242 2.84951 54.5377 3.61996 54.5409 4.53793C54.5441 5.43636 54.2538 6.1991 53.67 6.82615C53.1058 7.45314 52.2768 7.76855 51.1831 7.77239C50.0893 7.77623 49.2484 7.46668 48.6603 6.84374C48.0917 6.22073 47.8058 5.46001 47.8027 4.56158ZM63.6229 4.50605C63.6197 3.58809 63.9001 2.81562 64.4644 2.18863C65.048 1.54205 65.8867 1.21684 66.9805 1.213C68.0742 1.20916 68.9054 1.52851 69.4741 2.17105C70.0622 2.79399 70.3579 3.56444 70.3611 4.4824C70.3643 5.38084 70.074 6.14358 69.4902 6.77063C68.926 7.39762 68.097 7.71303 67.0033 7.71686C65.9096 7.7207 65.0686 7.41115 64.4805 6.78821C63.9119 6.1652 63.626 5.40448 63.6229 4.50605ZM79.4431 4.45053C79.4399 3.53257 79.7204 2.76009 80.2846 2.13311C80.8682 1.48653 81.7069 1.16131 82.8007 1.15748C83.8944 1.15364 84.7256 1.47299 85.2943 2.11553C85.8824 2.73847 86.1781 3.50892 86.1813 4.42688C86.1845 5.32531 85.8942 6.08806 85.3104 6.71511C84.7462 7.34209 83.9173 7.6575 82.8235 7.66134C81.7298 7.66518 80.8888 7.35563 80.3007 6.73269C79.7321 6.10968 79.4462 5.34896 79.4431 4.45053ZM95.2633 4.39501C95.2601 3.47704 95.5406 2.70457 96.1048 2.07759C96.6885 1.431 97.5272 1.10579 98.6209 1.10195C99.7147 1.09812 100.546 1.41747 101.115 2.06001C101.703 2.68294 101.998 3.4534 102.002 4.37136C102.005 5.26979 101.714 6.03253 101.131 6.65959C100.566 7.28657 99.7375 7.60198 98.6437 7.60582C97.55 7.60966 96.7091 7.30011 96.1209 6.67717C95.5523 6.05416 95.2665 5.29344 95.2633 4.39501ZM111.084 4.33949C111.08 3.42152 111.361 2.64905 111.925 2.02206C112.509 1.37548 113.347 1.05027 114.441 1.04643C115.535 1.04259 116.366 1.36194 116.935 2.00448C117.523 2.62742 117.819 3.39787 117.822 4.31584C117.825 5.21427 117.535 5.97701 116.951 6.60406C116.387 7.23105 115.558 7.54646 114.464 7.5503C113.37 7.55414 112.529 7.24459 111.941 6.62165C111.373 5.99864 111.087 5.23792 111.084 4.33949ZM126.904 4.28396C126.901 3.366 127.181 2.59353 127.745 1.96654C128.329 1.31996 129.168 0.994747 130.261 0.990909C131.355 0.98707 132.186 1.30642 132.755 1.94896C133.343 2.5719 133.639 3.34235 133.642 4.26031C133.645 5.15875 133.355 5.92149 132.771 6.54854C132.207 7.17553 131.378 7.49094 130.284 7.49478C129.19 7.49861 128.349 7.18906 127.761 6.56612C127.193 5.94312 126.907 5.18239 126.904 4.28396ZM142.724 4.22844C142.721 3.31048 143.001 2.538 143.565 1.91102C144.149 1.26444 144.988 0.939225 146.082 0.935386C147.175 0.931548 148.007 1.2509 148.575 1.89344C149.163 2.51638 149.459 3.28683 149.462 4.20479C149.465 5.10322 149.175 5.86597 148.591 6.49302C148.027 7.12 147.198 7.43541 146.104 7.43925C145.011 7.44309 144.17 7.13354 143.582 6.5106C143.013 5.88759 142.727 5.12687 142.724 4.22844ZM158.544 4.17292C158.541 3.25495 158.821 2.48248 159.386 1.8555C159.969 1.20891 160.808 0.883703 161.902 0.879864C162.996 0.876025 163.827 1.19538 164.395 1.83792C164.984 2.46086 165.279 3.23131 165.282 4.14927C165.286 5.0477 164.995 5.81044 164.412 6.4375C163.847 7.06448 163.018 7.37989 161.925 7.38373C160.831 7.38757 159.99 7.07802 159.402 6.45508C158.833 5.83207 158.547 5.07135 158.544 4.17292ZM0.464846 39.7279C0.461624 38.81 0.742118 38.0375 1.30633 37.4105C1.89 36.7639 2.72871 36.4387 3.82245 36.4349C4.91619 36.431 5.7474 36.7504 6.31606 37.3929C6.90419 38.0159 7.19986 38.7863 7.20309 39.7043C7.20624 40.6027 6.91595 41.3655 6.33221 41.9925C5.768 42.6195 4.93902 42.9349 3.84528 42.9387C2.75153 42.9426 1.9106 42.633 1.32247 42.0101C0.753874 41.3871 0.467999 40.6264 0.464846 39.7279ZM16.2851 39.6724C16.2818 38.7544 16.5623 37.982 17.1265 37.355C17.7102 36.7084 18.5489 36.3832 19.6427 36.3794C20.7364 36.3755 21.5676 36.6949 22.1363 37.3374C22.7244 37.9603 23.0201 38.7308 23.0233 39.6488C23.0265 40.5472 22.7362 41.3099 22.1524 41.937C21.5882 42.564 20.7592 42.8794 19.6655 42.8832C18.5717 42.8871 17.7308 42.5775 17.1427 41.9546C16.5741 41.3316 16.2882 40.5708 16.2851 39.6724ZM32.1053 39.6169C32.1021 38.6989 32.3825 37.9264 32.9468 37.2995C33.5304 36.6529 34.3691 36.3277 35.4629 36.3238C36.5566 36.32 37.3878 36.6393 37.9565 37.2819C38.5446 37.9048 38.8403 38.6753 38.8435 39.5932C38.8467 40.4917 38.5564 41.2544 37.9726 41.8815C37.4084 42.5084 36.5795 42.8239 35.4857 42.8277C34.392 42.8315 33.551 42.522 32.9629 41.899C32.3943 41.276 32.1084 40.5153 32.1053 39.6169ZM47.9255 39.5614C47.9223 38.6434 48.2028 37.8709 48.767 37.2439C49.3506 36.5974 50.1894 36.2721 51.2831 36.2683C52.3768 36.2645 53.208 36.5838 53.7767 37.2264C54.3648 37.8493 54.6605 38.6197 54.6637 39.5377C54.6669 40.4361 54.3766 41.1989 53.7929 41.8259C53.2286 42.4529 52.3997 42.7683 51.3059 42.7722C50.2122 42.776 49.3712 42.4665 48.7831 41.8435C48.2145 41.2205 47.9286 40.4598 47.9255 39.5614ZM63.7457 39.5058C63.7425 38.5879 64.023 37.8154 64.5872 37.1884C65.1709 36.5418 66.0096 36.2166 67.1033 36.2128C68.1971 36.2089 69.0283 36.5283 69.5969 37.1708C70.1851 37.7938 70.4807 38.5642 70.4839 39.4822C70.4871 40.3806 70.1968 41.1434 69.6131 41.7704C69.0489 42.3974 68.2199 42.7128 67.1261 42.7167C66.0324 42.7205 65.1915 42.4109 64.6033 41.788C64.0347 41.165 63.7489 40.4043 63.7457 39.5058ZM79.5659 39.4503C79.5627 38.5324 79.8432 37.7599 80.4074 37.1329C80.9911 36.4863 81.8298 36.1611 82.9235 36.1573C84.0173 36.1534 84.8485 36.4728 85.4171 37.1153C86.0053 37.7383 86.3009 38.5087 86.3042 39.4267C86.3073 40.3251 86.017 41.0878 85.4333 41.7149C84.8691 42.3419 84.0401 42.6573 82.9464 42.6611C81.8526 42.665 81.0117 42.3554 80.4235 41.7325C79.855 41.1095 79.5691 40.3487 79.5659 39.4503ZM95.3861 39.3948C95.3829 38.4768 95.6634 37.7044 96.2276 37.0774C96.8113 36.4308 97.65 36.1056 98.7437 36.1017C99.8375 36.0979 100.669 36.4173 101.237 37.0598C101.825 37.6827 102.121 38.4532 102.124 39.3711C102.128 40.2696 101.837 41.0323 101.253 41.6594C100.689 42.2864 99.8603 42.6018 98.7666 42.6056C97.6728 42.6094 96.8319 42.2999 96.2438 41.677C95.6752 41.0539 95.3893 40.2932 95.3861 39.3948ZM111.206 39.3393C111.203 38.4213 111.484 37.6488 112.048 37.0218C112.632 36.3753 113.47 36.0501 114.564 36.0462C115.658 36.0424 116.489 36.3617 117.058 37.0043C117.646 37.6272 117.941 38.3977 117.945 39.3156C117.948 40.2141 117.657 40.9768 117.074 41.6038C116.51 42.2308 115.681 42.5462 114.587 42.5501C113.493 42.5539 112.652 42.2444 112.064 41.6214C111.495 40.9984 111.21 40.2377 111.206 39.3393ZM127.027 39.2837C127.023 38.3658 127.304 37.5933 127.868 36.9663C128.452 36.3197 129.29 35.9945 130.384 35.9907C131.478 35.9869 132.309 36.3062 132.878 36.9487C133.466 37.5717 133.762 38.3421 133.765 39.2601C133.768 40.1585 133.478 40.9213 132.894 41.5483C132.33 42.1753 131.501 42.4907 130.407 42.4946C129.313 42.4984 128.472 42.1888 127.884 41.5659C127.316 40.9429 127.03 40.1822 127.027 39.2837ZM142.847 39.2282C142.844 38.3103 143.124 37.5378 143.688 36.9108C144.272 36.2642 145.111 35.939 146.204 35.9352C147.298 35.9313 148.129 36.2507 148.698 36.8932C149.286 37.5162 149.582 38.2866 149.585 39.2046C149.588 40.103 149.298 40.8658 148.714 41.4928C148.15 42.1198 147.321 42.4352 146.227 42.439C145.133 42.4429 144.293 42.1333 143.704 41.5104C143.136 40.8874 142.85 40.1267 142.847 39.2282ZM158.667 39.1727C158.664 38.2547 158.944 37.4823 159.508 36.8553C160.092 36.2087 160.931 35.8835 162.025 35.8796C163.118 35.8758 163.95 36.1952 164.518 36.8377C165.106 37.4606 165.402 38.2311 165.405 39.1491C165.408 40.0475 165.118 40.8102 164.534 41.4373C163.97 42.0643 163.141 42.3797 162.047 42.3835C160.954 42.3874 160.113 42.0778 159.525 41.4549C158.956 40.8319 158.67 40.0711 158.667 39.1727ZM0.587681 74.7277C0.584459 73.8097 0.864953 73.0373 1.42916 72.4103C2.01283 71.7637 2.85154 71.4385 3.94529 71.4347C5.03903 71.4308 5.87023 71.7502 6.4389 72.3927C7.02702 73.0156 7.3227 73.7861 7.32592 74.7041C7.32907 75.6025 7.03878 76.3652 6.45504 76.9923C5.89083 77.6193 5.06185 77.9347 3.96811 77.9385C2.87437 77.9424 2.03343 77.6328 1.44531 77.0099C0.876709 76.3869 0.590834 75.6261 0.587681 74.7277ZM16.4079 74.6722C16.4047 73.7542 16.6852 72.9818 17.2494 72.3548C17.833 71.7082 18.6718 71.383 19.7655 71.3791C20.8592 71.3753 21.6904 71.6946 22.2591 72.3372C22.8472 72.9601 23.1429 73.7306 23.1461 74.6485C23.1493 75.547 22.859 76.3097 22.2753 76.9368C21.711 77.5638 20.8821 77.8792 19.7883 77.883C18.6946 77.8868 17.8536 77.5773 17.2655 76.9544C16.6969 76.3313 16.411 75.5706 16.4079 74.6722ZM32.2281 74.6167C32.2249 73.6987 32.5054 72.9262 33.0696 72.2992C33.6533 71.6527 34.492 71.3275 35.5857 71.3236C36.6795 71.3198 37.5107 71.6391 38.0793 72.2817C38.6675 72.9046 38.9631 73.6751 38.9664 74.593C38.9695 75.4915 38.6792 76.2542 38.0955 76.8812C37.5313 77.5082 36.7023 77.8236 35.6085 77.8275C34.5148 77.8313 33.6739 77.5218 33.0857 76.8988C32.5171 76.2758 32.2313 75.5151 32.2281 74.6167ZM48.0483 74.5611C48.0451 73.6432 48.3256 72.8707 48.8898 72.2437C49.4735 71.5971 50.3122 71.2719 51.4059 71.2681C52.4997 71.2643 53.3309 71.5836 53.8995 72.2261C54.4877 72.8491 54.7833 73.6195 54.7866 74.5375C54.7897 75.4359 54.4994 76.1987 53.9157 76.8257C53.3515 77.4527 52.5225 77.7681 51.4288 77.772C50.335 77.7758 49.4941 77.4662 48.906 76.8433C48.3374 76.2203 48.0515 75.4596 48.0483 74.5611ZM63.8685 74.5056C63.8653 73.5877 64.1458 72.8152 64.71 72.1882C65.2937 71.5416 66.1324 71.2164 67.2261 71.2126C68.3199 71.2087 69.1511 71.5281 69.7198 72.1706C70.3079 72.7936 70.6036 73.564 70.6068 74.482C70.6099 75.3804 70.3196 76.1431 69.7359 76.7702C69.1717 77.3972 68.3427 77.7126 67.249 77.7164C66.1552 77.7203 65.3143 77.4107 64.7262 76.7878C64.1576 76.1648 63.8717 75.4041 63.8685 74.5056ZM79.6888 74.4501C79.6855 73.5321 79.966 72.7597 80.5302 72.1327C81.1139 71.4861 81.9526 71.1609 83.0464 71.157C84.1401 71.1532 84.9713 71.4726 85.54 72.1151C86.1281 72.738 86.4238 73.5085 86.427 74.4265C86.4302 75.3249 86.1399 76.0876 85.5561 76.7147C84.9919 77.3417 84.1629 77.6571 83.0692 77.6609C81.9754 77.6648 81.1345 77.3552 80.5464 76.7323C79.9778 76.1093 79.6919 75.3485 79.6888 74.4501ZM95.509 74.3946C95.5058 73.4766 95.7862 72.7041 96.3505 72.0772C96.9341 71.4306 97.7728 71.1054 98.8666 71.1015C99.9603 71.0977 100.792 71.417 101.36 72.0596C101.948 72.6825 102.244 73.453 102.247 74.3709C102.25 75.2694 101.96 76.0321 101.376 76.6592C100.812 77.2861 99.9831 77.6016 98.8894 77.6054C97.7957 77.6092 96.9547 77.2997 96.3666 76.6767C95.798 76.0537 95.5121 75.293 95.509 74.3946ZM111.329 74.3391C111.326 73.4211 111.606 72.6486 112.171 72.0216C112.754 71.3751 113.593 71.0498 114.687 71.046C115.781 71.0422 116.612 71.3615 117.18 72.0041C117.769 72.627 118.064 73.3974 118.067 74.3154C118.071 75.2138 117.78 75.9766 117.197 76.6036C116.632 77.2306 115.803 77.546 114.71 77.5499C113.616 77.5537 112.775 77.2442 112.187 76.6212C111.618 75.9982 111.332 75.2375 111.329 74.3391ZM127.149 74.2835C127.146 73.3656 127.427 72.5931 127.991 71.9661C128.575 71.3195 129.413 70.9943 130.507 70.9905C131.601 70.9866 132.432 71.306 133.001 71.9485C133.589 72.5715 133.884 73.3419 133.888 74.2599C133.891 75.1583 133.601 75.9211 133.017 76.5481C132.453 77.1751 131.624 77.4905 130.53 77.4943C129.436 77.4982 128.595 77.1886 128.007 76.5657C127.438 75.9427 127.153 75.182 127.149 74.2835ZM142.97 74.228C142.966 73.31 143.247 72.5376 143.811 71.9106C144.395 71.264 145.233 70.9388 146.327 70.935C147.421 70.9311 148.252 71.2505 148.821 71.893C149.409 72.5159 149.705 73.2864 149.708 74.2044C149.711 75.1028 149.421 75.8655 148.837 76.4926C148.273 77.1196 147.444 77.435 146.35 77.4388C145.256 77.4427 144.415 77.1331 143.827 76.5102C143.259 75.8872 142.973 75.1264 142.97 74.228ZM158.79 74.1725C158.787 73.2545 159.067 72.4821 159.631 71.8551C160.215 71.2085 161.054 70.8833 162.147 70.8794C163.241 70.8756 164.072 71.1949 164.641 71.8375C165.229 72.4604 165.525 73.2309 165.528 74.1488C165.531 75.0473 165.241 75.81 164.657 76.4371C164.093 77.0641 163.264 77.3795 162.17 77.3833C161.077 77.3871 160.236 77.0776 159.647 76.4546C159.079 75.8316 158.793 75.0709 158.79 74.1725ZM0.710516 109.727C0.707294 108.81 0.987788 108.037 1.552 107.41C2.13567 106.763 2.97438 106.438 4.06812 106.434C5.16186 106.431 5.99307 106.75 6.56173 107.392C7.14986 108.015 7.44553 108.786 7.44876 109.704C7.45191 110.602 7.16162 111.365 6.57787 111.992C6.01367 112.619 5.18469 112.934 4.09095 112.938C2.9972 112.942 2.15627 112.633 1.56814 112.01C0.999544 111.387 0.713669 110.626 0.710516 109.727ZM16.5307 109.672C16.5275 108.754 16.808 107.982 17.3722 107.355C17.9559 106.708 18.7946 106.383 19.8883 106.379C20.9821 106.375 21.8133 106.694 22.3819 107.337C22.9701 107.96 23.2657 108.73 23.269 109.648C23.2721 110.547 22.9818 111.31 22.3981 111.937C21.8339 112.564 21.0049 112.879 19.9112 112.883C18.8174 112.887 17.9765 112.577 17.3884 111.954C16.8198 111.331 16.5339 110.57 16.5307 109.672ZM32.3509 109.616C32.3477 108.698 32.6282 107.926 33.1924 107.299C33.7761 106.652 34.6148 106.327 35.7086 106.323C36.8023 106.32 37.6335 106.639 38.2022 107.281C38.7903 107.904 39.086 108.675 39.0892 109.593C39.0923 110.491 38.802 111.254 38.2183 111.881C37.6541 112.508 36.8251 112.823 35.7314 112.827C34.6376 112.831 33.7967 112.522 33.2086 111.899C32.64 111.276 32.3541 110.515 32.3509 109.616ZM48.1712 109.561C48.1679 108.643 48.4484 107.87 49.0126 107.244C49.5963 106.597 50.435 106.272 51.5288 106.268C52.6225 106.264 53.4537 106.583 54.0224 107.226C54.6105 107.849 54.9062 108.619 54.9094 109.537C54.9126 110.436 54.6223 111.198 54.0385 111.826C53.4743 112.452 52.6453 112.768 51.5516 112.772C50.4578 112.776 49.6169 112.466 49.0288 111.843C48.4602 111.22 48.1743 110.459 48.1712 109.561ZM63.9914 109.505C63.9882 108.587 64.2686 107.815 64.8329 107.188C65.4165 106.541 66.2552 106.216 67.349 106.212C68.4427 106.209 69.2739 106.528 69.8426 107.17C70.4307 107.793 70.7264 108.564 70.7296 109.482C70.7328 110.38 70.4425 111.143 69.8587 111.77C69.2945 112.397 68.4656 112.712 67.3718 112.716C66.2781 112.72 65.4371 112.411 64.849 111.788C64.2804 111.165 63.9945 110.404 63.9914 109.505ZM79.8116 109.45C79.8084 108.532 80.0889 107.759 80.6531 107.132C81.2367 106.486 82.0755 106.161 83.1692 106.157C84.2629 106.153 85.0941 106.472 85.6628 107.115C86.2509 107.738 86.5466 108.508 86.5498 109.426C86.553 110.325 86.2627 111.087 85.679 111.714C85.1147 112.341 84.2858 112.657 83.192 112.661C82.0983 112.665 81.2573 112.355 80.6692 111.732C80.1006 111.109 79.8147 110.348 79.8116 109.45ZM95.6318 109.394C95.6286 108.476 95.9091 107.704 96.4733 107.077C97.057 106.43 97.8957 106.105 98.9894 106.101C100.083 106.097 100.914 106.417 101.483 107.059C102.071 107.682 102.367 108.453 102.37 109.371C102.373 110.269 102.083 111.032 101.499 111.659C100.935 112.286 100.106 112.601 99.0122 112.605C97.9185 112.609 97.0776 112.299 96.4894 111.677C95.9208 111.054 95.635 110.293 95.6318 109.394ZM111.452 109.339C111.449 108.421 111.729 107.648 112.294 107.021C112.877 106.375 113.716 106.05 114.81 106.046C115.903 106.042 116.735 106.361 117.303 107.004C117.891 107.627 118.187 108.397 118.19 109.315C118.193 110.214 117.903 110.976 117.319 111.603C116.755 112.23 115.926 112.546 114.832 112.55C113.739 112.553 112.898 112.244 112.31 111.621C111.741 110.998 111.455 110.237 111.452 109.339ZM127.272 109.283C127.269 108.365 127.55 107.593 128.114 106.966C128.697 106.319 129.536 105.994 130.63 105.99C131.724 105.986 132.555 106.306 133.123 106.948C133.712 107.571 134.007 108.342 134.01 109.26C134.014 110.158 133.723 110.921 133.14 111.548C132.575 112.175 131.746 112.49 130.653 112.494C129.559 112.498 128.718 112.188 128.13 111.565C127.561 110.942 127.275 110.182 127.272 109.283ZM143.092 109.228C143.089 108.31 143.37 107.537 143.934 106.91C144.518 106.264 145.356 105.939 146.45 105.935C147.544 105.931 148.375 106.25 148.944 106.893C149.532 107.516 149.827 108.286 149.831 109.204C149.834 110.103 149.544 110.865 148.96 111.492C148.396 112.119 147.567 112.435 146.473 112.439C145.379 112.442 144.538 112.133 143.95 111.51C143.381 110.887 143.096 110.126 143.092 109.228ZM158.913 109.172C158.909 108.254 159.19 107.482 159.754 106.855C160.338 106.208 161.177 105.883 162.27 105.879C163.364 105.875 164.195 106.195 164.764 106.837C165.352 107.46 165.648 108.231 165.651 109.149C165.654 110.047 165.364 110.81 164.78 111.437C164.216 112.064 163.387 112.379 162.293 112.383C161.199 112.387 160.358 112.077 159.77 111.454C159.202 110.831 158.916 110.071 158.913 109.172ZM0.833351 144.727C0.830129 143.809 1.11062 143.037 1.67483 142.41C2.2585 141.763 3.09721 141.438 4.19095 141.434C5.2847 141.43 6.1159 141.75 6.68457 142.392C7.27269 143.015 7.56837 143.786 7.57159 144.704C7.57474 145.602 7.28445 146.365 6.70071 146.992C6.1365 147.619 5.30752 147.934 4.21378 147.938C3.12004 147.942 2.2791 147.632 1.69097 147.009C1.12238 146.386 0.836504 145.626 0.833351 144.727ZM16.6536 144.672C16.6503 143.754 16.9308 142.981 17.495 142.354C18.0787 141.708 18.9174 141.383 20.0112 141.379C21.1049 141.375 21.9361 141.694 22.5048 142.337C23.0929 142.96 23.3886 143.73 23.3918 144.648C23.395 145.547 23.1047 146.309 22.5209 146.936C21.9567 147.563 21.1277 147.879 20.034 147.883C18.9403 147.886 18.0993 147.577 17.5112 146.954C16.9426 146.331 16.6567 145.57 16.6536 144.672ZM32.4738 144.616C32.4706 143.698 32.7511 142.926 33.3153 142.299C33.8989 141.652 34.7376 141.327 35.8314 141.323C36.9251 141.319 37.7563 141.639 38.325 142.281C38.9131 142.904 39.2088 143.675 39.212 144.593C39.2152 145.491 38.9249 146.254 38.3411 146.881C37.7769 147.508 36.948 147.823 35.8542 147.827C34.7605 147.831 33.9195 147.521 33.3314 146.898C32.7628 146.275 32.4769 145.515 32.4738 144.616ZM48.294 144.561C48.2908 143.643 48.5713 142.87 49.1355 142.243C49.7192 141.597 50.5579 141.272 51.6516 141.268C52.7453 141.264 53.5765 141.583 54.1452 142.226C54.7333 142.849 55.029 143.619 55.0322 144.537C55.0354 145.435 54.7451 146.198 54.1614 146.825C53.5971 147.452 52.7682 147.768 51.6744 147.772C50.5807 147.775 49.7397 147.466 49.1516 146.843C48.583 146.22 48.2971 145.459 48.294 144.561ZM64.1142 144.505C64.111 143.587 64.3915 142.815 64.9557 142.188C65.5394 141.541 66.3781 141.216 67.4718 141.212C68.5656 141.208 69.3968 141.528 69.9654 142.17C70.5536 142.793 70.8492 143.564 70.8525 144.482C70.8556 145.38 70.5653 146.143 69.9816 146.77C69.4174 147.397 68.5884 147.712 67.4946 147.716C66.4009 147.72 65.56 147.41 64.9718 146.787C64.4032 146.164 64.1174 145.404 64.1142 144.505ZM79.9344 144.45C79.9312 143.532 80.2117 142.759 80.7759 142.132C81.3596 141.486 82.1983 141.16 83.292 141.157C84.3858 141.153 85.217 141.472 85.7856 142.115C86.3738 142.738 86.6694 143.508 86.6727 144.426C86.6758 145.324 86.3855 146.087 85.8018 146.714C85.2376 147.341 84.4086 147.657 83.3149 147.66C82.2211 147.664 81.3802 147.355 80.7921 146.732C80.2235 146.109 79.9376 145.348 79.9344 144.45ZM95.7546 144.394C95.7514 143.476 96.0319 142.704 96.5961 142.077C97.1798 141.43 98.0185 141.105 99.1122 141.101C100.206 141.097 101.037 141.417 101.606 142.059C102.194 142.682 102.49 143.453 102.493 144.37C102.496 145.269 102.206 146.032 101.622 146.659C101.058 147.286 100.229 147.601 99.1351 147.605C98.0413 147.609 97.2004 147.299 96.6123 146.676C96.0437 146.053 95.7578 145.293 95.7546 144.394ZM111.575 144.339C111.572 143.421 111.852 142.648 112.416 142.021C113 141.375 113.839 141.049 114.932 141.046C116.026 141.042 116.857 141.361 117.426 142.004C118.014 142.627 118.31 143.397 118.313 144.315C118.316 145.213 118.026 145.976 117.442 146.603C116.878 147.23 116.049 147.546 114.955 147.549C113.862 147.553 113.021 147.244 112.432 146.621C111.864 145.998 111.578 145.237 111.575 144.339ZM127.395 144.283C127.392 143.365 127.672 142.593 128.237 141.966C128.82 141.319 129.659 140.994 130.753 140.99C131.846 140.986 132.678 141.306 133.246 141.948C133.834 142.571 134.13 143.341 134.133 144.259C134.136 145.158 133.846 145.921 133.262 146.548C132.698 147.175 131.869 147.49 130.776 147.494C129.682 147.498 128.841 147.188 128.253 146.565C127.684 145.942 127.398 145.182 127.395 144.283ZM143.215 144.228C143.212 143.31 143.493 142.537 144.057 141.91C144.64 141.264 145.479 140.938 146.573 140.935C147.667 140.931 148.498 141.25 149.067 141.893C149.655 142.516 149.95 143.286 149.954 144.204C149.957 145.102 149.666 145.865 149.083 146.492C148.518 147.119 147.689 147.435 146.596 147.438C145.502 147.442 144.661 147.133 144.073 146.51C143.504 145.887 143.218 145.126 143.215 144.228ZM159.036 144.172C159.032 143.254 159.313 142.482 159.877 141.855C160.461 141.208 161.299 140.883 162.393 140.879C163.487 140.875 164.318 141.195 164.887 141.837C165.475 142.46 165.771 143.23 165.774 144.148C165.777 145.047 165.487 145.81 164.903 146.437C164.339 147.064 163.51 147.379 162.416 147.383C161.322 147.387 160.481 147.077 159.893 146.454C159.325 145.831 159.039 145.07 159.036 144.172Z" fill="white"/>
</svg>
